<svg width="512" height="512" xmlns="http://www.w3.org/2000/svg">

 <g>
  <title>background</title>
  <rect fill="none" id="canvas_background" height="402" width="582" y="-1" x="-1"/>
 </g>
 <g>
  <title>Layer 1</title>
  <path id="logo" fill="#bb86fc" d="m322.6,321.9c-2.9,1.1 -5.7,1.8 -8.6,2.9c-4.3,1.7 -12.9,4 -17.7,5c-6.1,1.3 -12,3 -18.4,4.3c-6.6,1.3 -12.5,2 -19.4,3.2c-6.4,1.1 -13.9,1.5 -20.7,2c-7.1,0.5 -14.5,0.8 -22.1,0.8l-1.6,0c-27.3,0 -53.4,-4.3 -71.6,-13.4c-17.6,-8.8 -34,-25 -34,-51.1l0,-2.4c0,-12.3 3.8,-21.7 7.3,-30.6c1.6,-3.9 4.5,-8.9 6.7,-12.2c1.4,-2.1 2.5,-3.6 4,-5.6c1.3,-1.8 3.4,-3.7 4.4,-5.2l0,-8.5c-4.3,2.8 -8.7,8.4 -12.3,12.2c-4.1,4.3 -7.1,9 -10.5,14c-5,7.4 -12.1,24.8 -12.1,37l0,8.5c0,15.1 6,28.4 12.1,37.5c6.9,10.3 16.1,16.4 26.6,23c8.3,5.2 25,11 36.3,13.3c13.9,2.8 28,4.8 44.8,4.8l8.3,0c51.5,0 103.9,-15 137.6,-32.8l0,-24.3c-9.1,4.8 -20.4,11.2 -30.9,14.5c-2.3,0.7 -5.9,2.3 -8.2,3.1zm92,-111.3c-0.5,-2.8 -1.5,-6.4 -2.5,-8.7c-2.4,-5.9 -4.4,-9.9 -8,-14.7c-6.7,-8.7 -14.6,-15.1 -24.5,-20.6c-18.2,-10.1 -45.9,-16.2 -74.2,-16.2l-2.4,0c-29.2,0 -53.3,4.9 -76.2,11.3c-6,1.7 -10.9,3.5 -16.5,5.3c-4.6,1.5 -11.5,4.1 -15.7,6.2c-5,2.5 -10,4.6 -14.8,7c-2.6,1.3 -12.5,7.4 -14.1,7.7l0,6.4c2.2,-0.5 10.3,-5 13.4,-6.3c4.3,-1.8 9.7,-4.6 14.1,-5.9c2,-0.6 5.2,-1.8 7.2,-2.7c2.4,-1 4.9,-1.6 7.4,-2.5c4.8,-1.6 10.2,-3.4 15.3,-4.7c11,-2.8 20.6,-5 32.6,-7.1c10.2,-1.8 24.6,-3.6 36.1,-3.6l12,0c23.4,0 48.7,5.4 63.6,13.7c9.1,5.1 15.2,9.3 21.5,17.2c4.7,5.9 10.6,17.8 10.6,28.3l0,4.5c0,11.1 -5.8,23 -10.6,29.4c-2.9,3.9 -5.8,7.4 -9.4,10.6c-1.7,1.6 -9.9,8 -11.8,8.5l0,17.6c3.8,-0.3 15.1,-7.6 18,-9.8c5.4,-4 10.2,-8.6 14.2,-13.8c4.6,-5.9 7.2,-10.2 10.5,-17.5c1.5,-3.3 2.4,-6.6 3.5,-10.3c0.5,-1.5 1.9,-12.1 2,-12.2l0,-7.7c0,0.3 -1.1,-8.3 -1.3,-9.4zm-84.2,53.8l0,-7.2c0,-8.5 -3,-16.6 -6.7,-21.5c-3.5,-4.6 -10.7,-9.9 -18.6,-9.9l-5.1,0c-8.4,0 -16,5.3 -20.1,9.8c-4.2,4.6 -7.7,13.4 -7.7,22.2l0,3.2c0,18.3 11.2,31.7 29.6,31.7l3.5,0c5.6,0 9.5,-1.3 13.5,-3c4.3,-1.8 6.5,-5 9.8,-7.2l-10.5,-9.8c-2.1,3.1 -7.8,6.1 -13.1,6.1l-2.9,0c-6.9,0 -13.3,-5.9 -13.3,-12.5l0,-1.9l41.6,0l0,0zm-41.6,-13.1c0,-6 5.9,-12 12,-12l1.3,0c7,0 11.7,5.9 11.7,12.5l0,1.3l-25.1,0l0,-1.8l0.1,0zm-61.6,40.3l0,-45.6c0,-10.8 -7.4,-19.2 -18.1,-19.2l-35.2,0l0,64.8l16.3,0l0,-51.5l14.7,0c3.2,0 5.9,2.5 5.9,5.6l0,45.9l16.4,0zm12,-82.7l0,63.5c0,11 7.1,19.2 17.9,19.2l11.2,0l0,-13.9l-8.3,0c-2.4,0 -4.3,-2.8 -4.3,-5.3l0,-32.3l12.5,0l0,-13.3l-12.5,0l0,-17.9l-16.5,0l0,0zm117.3,82.2l0,-91.2l-16.5,0l0,76c0,4.4 2.7,8.4 5,10.7c1.2,1.2 3.2,2.3 5,3c2.6,1 3.9,0.8 6.5,1.5zm-197.3,1.3l0,-65.6l-16.5,0l-0.4,15.2l0.1,32.3c0,10.9 6.4,17.9 16.8,18.1zm0,-90.4l-16.5,0l0,15.7l16.5,0l0,-15.7zm213.4,5l0.7,0c0.4,0 0.7,0.1 0.9,0.2c0.3,0.2 0.7,0.8 1.2,1.7l0.6,1.1l1.4,0l-0.9,-1.4c-0.4,-0.7 -0.8,-1.1 -1.1,-1.4c-0.2,-0.1 -0.4,-0.3 -0.6,-0.4c0.6,0 1.1,-0.3 1.5,-0.6c0.4,-0.4 0.6,-0.8 0.6,-1.4c0,-0.4 -0.1,-0.7 -0.3,-1c-0.2,-0.3 -0.5,-0.6 -0.9,-0.7c-0.4,-0.1 -1,-0.2 -1.8,-0.2l-2.4,0l0,7.1l1.1,0l0,-3l0,0zm0,-3.1l1.3,0c0.6,0 0.9,0 1.2,0.1c0.2,0.1 0.4,0.2 0.5,0.4c0.1,0.2 0.2,0.4 0.2,0.6c0,0.3 -0.1,0.6 -0.4,0.8c-0.2,0.2 -0.7,0.3 -1.4,0.3l-1.4,0l0,-2.2zm-1.5,8.3c1,0.6 2.1,0.9 3.3,0.9c1.1,0 2.2,-0.3 3.3,-0.9c1,-0.6 1.9,-1.4 2.4,-2.5c0.6,-1.1 0.9,-2.1 0.9,-3.3c0,-1.2 -0.3,-2.3 -0.9,-3.3c-0.6,-1.1 -1.4,-1.9 -2.5,-2.4c-1.1,-0.6 -2.1,-0.9 -3.3,-0.9c-1.1,0 -2.2,0.3 -3.3,0.9c-1.1,0.6 -1.9,1.4 -2.5,2.4c-0.6,1.1 -0.9,2.2 -0.9,3.3c0,1.1 0.3,2.2 0.9,3.3c0.7,1.1 1.5,1.9 2.6,2.5zm-2.3,-5.8c0,-1 0.2,-1.9 0.7,-2.8c0.5,-0.9 1.2,-1.6 2.1,-2c0.9,-0.5 1.8,-0.7 2.7,-0.7c0.9,0 1.8,0.2 2.7,0.7c0.9,0.5 1.6,1.2 2.1,2c0.5,0.9 0.7,1.8 0.7,2.8c0,1 -0.2,1.9 -0.7,2.7s-1.2,1.6 -2,2c-0.9,0.5 -1.8,0.7 -2.7,0.7c-1,0 -1.9,-0.2 -2.7,-0.7c-0.9,-0.5 -1.6,-1.2 -2,-2c-0.6,-0.8 -0.9,-1.7 -0.9,-2.7z"/>
 </g>
</svg>